<?xml version="1.0" encoding="UTF-8"?>
<svg width="950px" height="950px" viewBox="0 0 950 950" version="1.1" xmlns="http://www.w3.org/2000/svg" xmlns:xlink="http://www.w3.org/1999/xlink">
    <!-- Generator: Sketch 51.1 (57501) - http://www.bohemiancoding.com/sketch -->
    <title>Artboard</title>
    <desc>Created with Sketch.</desc>
    <defs></defs>
    <g id="Artboard" stroke="none" stroke-width="1" fill="none" fill-rule="evenodd">
        <path d="M164.9,598.8 L195.9,598.8 L182.9,760 L105.3,760.4 L105.3,729.2 L154.5,728.8 L164.9,598.8 Z M151.9,630 L105.3,630 L105.3,598.8 L151.9,598.8 L151.9,630 Z M200.9,599 L210.3,599 L210.3,623 L200.9,623 L200.9,599 Z M224.3,599 L224.3,623 L214.9,623 L214.9,599 L224.3,599 Z M151.9,678.6 L105.3,678.6 L105.3,647.4 L151.9,647.4 L151.9,678.6 Z M234.3,727 L281.9,727 L281.5,667 L234.3,667 L234.3,633.8 L312.9,633.8 L312.9,727 L326.3,727 L326.3,760.2 L234.3,760.2 L234.3,727 Z M429.7,596.8 L429.7,628 L338.5,628 L338.5,596.8 L429.7,596.8 Z M429.3,680.6 L429.7,760.2 L398.7,760.2 L398.3,680.6 L337.5,680.6 L337.5,647.4 L429.5,647.4 L429.5,680.6 L429.3,680.6 Z M520.5,760 L489.5,760 L499.9,632 L472.9,632 L473.1,683.6 L441.7,683.6 L441.7,598.6 L533.7,598.8 L520.5,760 Z M545.5,692 L545.5,661 L636.7,661 L636.7,692 L545.5,692 Z M740.7,632 L740.3,632 L740.7,760 L709.7,760 L709.3,632 L679.7,632 L679.7,717.2 L648.7,717.2 L648.7,598.8 L740.7,598.8 L740.7,632 Z M811.7,632 L752.3,632 L752.3,598.8 L844.3,598.8 L844.3,632 L823.5,672.6 L843.7,760 L812.7,760 L802.9,713.6 L780.1,760 L749.1,760 L811.7,632 Z" id="ジュラワークス" fill="#020002"></path>
        <g id="Group" transform="translate(186.000000, 153.000000)" fill="#020002">
            <path d="M410.810041,314.218562 C477.668886,314.218562 531.868688,260.01876 531.868688,193.159916 C531.868688,126.301072 477.668886,72.1012695 410.810041,72.1012695 L410.810041,14.7577003 C509.338864,14.7577003 589.212257,94.6310928 589.212257,193.159916 C589.212257,291.688739 509.338864,371.562131 410.810041,371.562131 L410.810041,314.218562 Z" id="Combined-Shape" transform="translate(500.011149, 193.159916) rotate(-9.000000) translate(-500.011149, -193.159916) "></path>
            <path d="M330.731558,130.058288 L320.407414,136.26166 C315.220592,139.378217 307.2111,135.572533 302.517713,127.761425 C297.824327,119.950318 298.224335,111.091696 303.411157,107.975139 L317.57848,99.4625529 C307.664734,62.5533683 317.994461,25.7147021 346.003165,8.88537466 C381.744898,-12.5904248 432.74068,6.64973632 459.905433,51.8594772 C459.991324,52.0024243 460.076874,52.1454599 460.162084,52.2885826 L330.731558,130.058288 Z M371.705275,78.2774194 C380.180752,74.1436528 382.270095,60.9892715 376.371952,48.8962864 C370.473809,36.8033013 358.821687,30.35108 350.34621,34.4848466 C341.870732,38.6186132 339.78139,51.7729945 345.679532,63.8659795 C351.577675,75.9589646 363.229797,82.411186 371.705275,78.2774194 Z" id="Combined-Shape"></path>
            <path d="M0.000722119064,383 C0.000240802328,382.833383 0,382.666716 0,382.5 C0,275.632901 98.9450703,189 221,189 C343.05493,189 442,275.632901 442,382.5 C442,382.666716 441.999759,382.833383 441.999278,383 L0.000670376638,383 Z" id="Combined-Shape"></path>
        </g>
        <rect id="Rectangle-4" x="0" y="0" width="950" height="950"></rect>
    </g>
</svg>