<?xml version="1.0" encoding="UTF-8"?>
<svg width="739px" height="164px" viewBox="0 0 739 164" version="1.1" xmlns="http://www.w3.org/2000/svg" xmlns:xlink="http://www.w3.org/1999/xlink">
    <!-- Generator: Sketch 51.1 (57501) - http://www.bohemiancoding.com/sketch -->
    <title>ジュラワークス</title>
    <desc>Created with Sketch.</desc>
    <defs></defs>
    <g id="Page-3" stroke="none" stroke-width="1" fill="none" fill-rule="evenodd">
        <g id="Artboard" transform="translate(-84.000000, -43.000000)" fill="#020002">
            <g id="Group" transform="translate(84.000000, 43.000000)">
                <path d="M59.6,2 L90.6,2 L77.6,163.2 L0,163.6 L0,132.4 L49.2,132 L59.6,2 Z M46.6,33.2 L0,33.2 L0,2 L46.6,2 L46.6,33.2 Z M95.6,2.2 L105,2.2 L105,26.2 L95.6,26.2 L95.6,2.2 Z M119,2.2 L119,26.2 L109.6,26.2 L109.6,2.2 L119,2.2 Z M46.6,81.8 L0,81.8 L0,50.6 L46.6,50.6 L46.6,81.8 Z M129,130.2 L176.6,130.2 L176.2,70.2 L129,70.2 L129,37 L207.6,37 L207.6,130.2 L221,130.2 L221,163.4 L129,163.4 L129,130.2 Z M324.4,0 L324.4,31.2 L233.2,31.2 L233.2,0 L324.4,0 Z M324,83.8 L324.4,163.4 L293.4,163.4 L293,83.8 L232.2,83.8 L232.2,50.6 L324.2,50.6 L324.2,83.8 L324,83.8 Z M415.2,163.2 L384.2,163.2 L394.6,35.2 L367.6,35.2 L367.8,86.8 L336.4,86.8 L336.4,1.8 L428.4,2 L415.2,163.2 Z M440.2,95.2 L440.2,64.2 L531.4,64.2 L531.4,95.2 L440.2,95.2 Z M635.4,35.2 L635,35.2 L635.4,163.2 L604.4,163.2 L604,35.2 L574.4,35.2 L574.4,120.4 L543.4,120.4 L543.4,2 L635.4,2 L635.4,35.2 Z M706.4,35.2 L647,35.2 L647,2 L739,2 L739,35.2 L718.2,75.8 L738.4,163.2 L707.4,163.2 L697.6,116.8 L674.8,163.2 L643.8,163.2 L706.4,35.2 Z" id="ジュラワークス"></path>
            </g>
        </g>
    </g>
</svg>