<?xml version="1.0" encoding="UTF-8"?>
<svg width="591px" height="384px" viewBox="0 0 591 384" version="1.1" xmlns="http://www.w3.org/2000/svg" xmlns:xlink="http://www.w3.org/1999/xlink">
    <!-- Generator: Sketch 51.1 (57501) - http://www.bohemiancoding.com/sketch -->
    <title>Group</title>
    <desc>Created with Sketch.</desc>
    <defs></defs>
    <g id="Page-1" stroke="none" stroke-width="1" fill="none" fill-rule="evenodd">
        <g id="Artboard" transform="translate(-186.000000, -153.000000)" fill="#020002">
            <g id="Group" transform="translate(186.000000, 153.000000)">
                <path d="M410.810041,314.218562 C477.668886,314.218562 531.868688,260.01876 531.868688,193.159916 C531.868688,126.301072 477.668886,72.1012695 410.810041,72.1012695 L410.810041,14.7577003 C509.338864,14.7577003 589.212257,94.6310928 589.212257,193.159916 C589.212257,291.688739 509.338864,371.562131 410.810041,371.562131 L410.810041,314.218562 Z" id="Combined-Shape" transform="translate(500.011149, 193.159916) rotate(-9.000000) translate(-500.011149, -193.159916) "></path>
                <path d="M330.731558,130.058288 L320.407414,136.26166 C315.220592,139.378217 307.2111,135.572533 302.517713,127.761425 C297.824327,119.950318 298.224335,111.091696 303.411157,107.975139 L317.57848,99.4625529 C307.664734,62.5533683 317.994461,25.7147021 346.003165,8.88537466 C381.744898,-12.5904248 432.74068,6.64973632 459.905433,51.8594772 C459.991324,52.0024243 460.076874,52.1454599 460.162084,52.2885826 L330.731558,130.058288 Z M371.705275,78.2774194 C380.180752,74.1436528 382.270095,60.9892715 376.371952,48.8962864 C370.473809,36.8033013 358.821687,30.35108 350.34621,34.4848466 C341.870732,38.6186132 339.78139,51.7729945 345.679532,63.8659795 C351.577675,75.9589646 363.229797,82.411186 371.705275,78.2774194 Z" id="Combined-Shape"></path>
                <path d="M0.000722119064,383 C0.000240802328,382.833383 0,382.666716 0,382.5 C0,275.632901 98.9450703,189 221,189 C343.05493,189 442,275.632901 442,382.5 C442,382.666716 441.999759,382.833383 441.999278,383 L0.000670376638,383 Z" id="Combined-Shape"></path>
            </g>
        </g>
    </g>
</svg>